<svg width="24" height="24" viewBox="0 0 24 24" fill="none" xmlns="http://www.w3.org/2000/svg">
<path d="M23.9871 6.00927C22.4257 6.00927 20.9851 5.55482 19.8282 4.78817C18.5014 3.90931 17.5481 2.62014 17.2115 1.13425C17.127 0.760637 17.0827 0.380892 17.079 0H12.6187V10.7078L12.6133 16.5729C12.6133 18.141 11.4511 19.4705 9.84003 19.9381C9.35745 20.0783 8.84918 20.1375 8.34169 20.1128C7.67054 20.0804 7.0416 19.9024 6.49496 19.6151C5.33166 19.0039 4.54295 17.895 4.52158 16.6264C4.48791 14.6438 6.31221 13.0274 8.56719 13.0274C9.01231 13.0274 9.4398 13.0913 9.84003 13.2073V9.22846C9.41789 9.17353 8.98826 9.14489 8.55383 9.14489C6.08564 9.14489 3.77722 10.0463 2.12713 11.6702C0.87994 12.8974 0.131841 14.4631 0.0164205 16.1048C-0.134802 18.2616 0.763451 20.3118 2.50545 21.8245C2.76141 22.0465 3.03019 22.2526 3.31126 22.4428C4.80479 23.4526 6.63068 24 8.55383 24C8.98826 24 9.41789 23.9718 9.84003 23.9169C11.6365 23.6831 13.2941 22.9606 14.6022 21.8245C16.2096 20.4287 17.0977 18.5757 17.1073 16.6034L17.0843 7.84492C17.8529 8.36578 18.6949 8.7972 19.5894 9.12846C20.9888 9.64723 22.4727 9.91014 23.9999 9.90967V6.00833C24.001 6.00927 23.9882 6.00927 23.9871 6.00927Z" fill="white"/>
</svg>
