<svg width="360" height="294" viewBox="0 0 360 294" fill="none" xmlns="http://www.w3.org/2000/svg">
<path d="M-51.8932 277.056C-59.9408 269.701 -65.1204 257.374 -68.9137 243.924C-76.6466 216.505 -80.6282 176.427 -84.6197 136.59C-89.0792 92.0647 -93.728 46.1158 -103.437 15.0319C-108.364 -0.745347 -114.027 -10.6856 -119.925 -15.2538C-122.595 -17.3218 -125.241 -18.2363 -128.16 -18.2256C-131.239 -18.2143 -135.393 -17.1615 -140.857 -13.9231L-159.778 -2.71055L-154.925 -24.2136L-154.676 -25.3152L-153.771 -29.3229L-150.245 -31.412C-142.701 -35.8825 -135.214 -38.5178 -127.834 -38.7902C-120.284 -39.0689 -113.492 -36.8445 -107.636 -32.6833C-96.486 -24.7593 -89.2446 -10.2013 -84.0243 6.03413C-73.442 38.9453 -68.6379 87.4141 -64.0256 133.469C-59.9837 173.829 -56.1502 211.772 -49.1478 237.193C-45.5742 250.167 -41.6347 258.014 -37.8749 261.612C-36.2471 263.17 -34.9982 263.6 -33.9841 263.685C-32.8556 263.779 -30.8291 263.535 -27.5966 261.676C-20.5884 257.647 -10.7687 247.416 1.72507 229.213C13.9845 211.351 28.1023 186.903 43.9939 155.855L43.9946 155.854C89.03 67.8711 132.637 9.01572 177.671 -22.2432C211.148 -45.4811 242.793 -51.8756 273.665 -49.3815C302.096 -47.0845 329.681 -37.2253 356.618 -27.173L361.997 -25.162C392.701 -13.6752 422.433 -2.62042 453.906 -0.379248C484.911 1.82848 517.955 -4.53405 554.905 -28.9457C599.687 -58.5305 645.815 -111.54 695.748 -192.233L697.506 -195.074L700.647 -196.188L702.144 -196.719L727.601 -205.751L713.356 -182.731C662.508 -100.563 614.132 -44.3452 565.294 -12.0805C524.334 14.9796 486.841 22.5543 451.502 20.1091C416.63 17.6963 384.229 5.50745 353.846 -5.85804L353.839 -5.86006L353.828 -5.86459L353.206 -6.09764L353.207 -6.09613C295.539 -27.6678 245.955 -45.5593 188.525 -5.69447C148.189 22.3056 106.829 77.154 62.4575 163.843C45.9734 196.048 31.2455 221.598 18.0995 240.594C5.14409 259.315 -6.95845 272.7 -18.4741 279.321L-18.4749 279.321C-24.1147 282.564 -30.0553 284.421 -36.1236 284.037C-42.3254 283.644 -47.6051 280.976 -51.8932 277.056Z" fill="#F8FAFD" stroke="#F8FAFD" stroke-width="19"/>
</svg>
