<svg width="360" height="921" viewBox="0 0 360 921" fill="none" xmlns="http://www.w3.org/2000/svg">
<path d="M399.341 11.1121C410.055 14.4298 420.736 24.2352 430.75 35.855C448.627 56.6002 468.84 88.5929 489.286 121.85L498.057 136.151L498.056 136.152C524.192 178.821 551.229 222.869 575.255 249.313C587.456 262.742 597.36 269.872 604.778 271.467C608.127 272.187 610.977 271.784 613.672 270.191C616.521 268.507 619.747 265.155 622.98 258.937L633.382 238.928L639.687 262.367L640.021 263.607L641.099 267.616L639.32 271.037C635.044 279.264 629.942 285.591 623.797 289.535C617.499 293.577 610.552 294.821 603.358 293.612C589.656 291.309 576.055 280.3 563.403 266.595C537.742 238.798 509.351 192.352 482.309 148.204C458.62 109.528 436.298 73.1492 417.465 51.04C407.846 39.7471 400.486 33.8449 395.42 32.1382C393.252 31.4078 391.89 31.5752 390.822 32.0732C389.614 32.6371 387.819 34.0905 385.83 37.799C381.573 45.7343 378.102 61.3612 376.291 86.1413C374.51 110.519 374.405 142.48 376.048 181.975C380.699 293.787 372.028 375.217 348.476 429.482C331 469.747 306.772 492.217 278.715 505.416C252.828 517.593 223.888 521.734 195.341 525.356L189.639 526.076C157.122 530.17 125.579 534.209 96.9009 548.076C68.599 561.761 42.7517 585.231 22.5676 629.047C-1.85867 682.07 -15.6429 759.406 -18.9102 866.466L-19.0107 869.754L-20.9189 872.14L-21.9602 873.44L-39.01 894.75L-38.1138 865.386C-34.7894 756.502 -20.6636 675.252 5.72273 617.973C27.8251 569.994 56.5836 543.337 88.5139 527.808C120.071 512.462 154.373 508.209 186.595 504.151L186.608 504.15C217.353 500.279 245.704 496.643 270.49 485.075C294.829 473.717 315.93 454.569 331.407 418.909C352.762 369.704 361.441 292.902 356.854 182.658C355.152 141.741 355.242 108.477 357.219 82.6592C359.171 57.1658 363.032 37.7314 369.627 25.4365L369.931 24.8793C373.096 19.1579 377.119 14.627 382.268 12.081C387.734 9.37827 393.612 9.33807 399.341 11.1121Z" fill="#F8FAFD" stroke="#F8FAFD" stroke-width="19"/>
</svg>
