<svg width="360" height="709" viewBox="0 0 360 709" fill="none" xmlns="http://www.w3.org/2000/svg">
<path d="M133.049 697.46C122.47 693.734 112.172 683.527 102.611 671.532C85.5418 650.117 66.5684 617.374 47.4112 583.358L39.1946 568.732L39.1949 568.731C14.7125 525.093 -10.6173 480.041 -33.6126 452.697C-45.2909 438.81 -54.9145 431.306 -62.2655 429.428C-65.585 428.58 -68.4481 428.874 -71.2026 430.363C-74.1141 431.936 -77.466 435.162 -80.9343 441.252L-92.0949 460.848L-97.4976 437.184L-97.7836 435.932L-98.7075 431.885L-96.7993 428.535C-92.2107 420.478 -86.8705 414.351 -80.5786 410.645C-74.1313 406.847 -67.1418 405.87 -59.9992 407.354C-46.3955 410.179 -33.2253 421.701 -21.1076 435.881C3.46932 464.64 30.0608 512.139 55.3919 557.291C77.5831 596.846 98.4952 634.053 116.467 656.867C125.647 668.52 132.776 674.7 137.772 676.599C139.911 677.412 141.279 677.297 142.364 676.84C143.593 676.323 145.442 674.939 147.572 671.31C152.13 663.543 156.197 648.061 158.955 623.368C161.669 599.076 162.998 567.144 162.869 527.614C162.504 415.706 174.287 334.668 199.9 281.345C218.905 241.779 243.976 220.253 272.518 208.138C298.852 196.961 327.929 193.932 356.594 191.406L362.32 190.905C394.969 188.06 426.644 185.231 455.832 172.473C484.638 159.882 511.365 137.419 533.212 94.4085C559.651 42.36 576.387 -34.392 583.752 -141.248L583.979 -144.53L585.977 -146.841L587.067 -148.1L604.921 -168.741L602.901 -139.433C595.409 -30.757 578.181 49.893 549.621 106.119C525.697 153.216 495.939 178.753 463.437 193.047C431.316 207.174 396.875 210.109 364.522 212.93L364.509 212.931C333.638 215.621 305.168 218.17 279.957 228.779C255.201 239.197 233.382 257.523 216.551 292.564C193.328 340.915 181.714 417.328 182.075 527.667C182.209 568.619 180.844 601.855 177.88 627.578C174.953 652.978 170.351 672.251 163.289 684.284L162.964 684.829C159.582 690.425 155.389 694.799 150.147 697.145C144.582 699.637 138.706 699.452 133.049 697.46Z" fill="#F8FAFD" stroke="#F8FAFD" stroke-width="19"/>
</svg>
