<svg width="360" height="477" viewBox="0 0 360 477" fill="none" xmlns="http://www.w3.org/2000/svg">
<path d="M95.6247 704.261C85.8533 699.429 77.4693 689.019 70.1098 677.151C55.1061 652.957 40.2109 615.555 25.3734 578.39L25.3726 578.39C8.78997 536.849 -8.36806 493.996 -26.2802 466.833C-35.3725 453.045 -43.5541 445.076 -50.474 442.33C-53.6051 441.088 -56.3973 440.944 -59.2 441.767C-62.1577 442.635 -65.86 444.803 -70.2187 449.438L-85.3146 465.488L-86.5913 443.444L-86.6563 442.317L-86.8939 438.223L-84.091 435.242C-78.0799 428.851 -71.6158 424.238 -64.6025 421.924C-57.4257 419.556 -50.2834 419.804 -43.5026 422.175C-30.5918 426.69 -19.6091 438.669 -10.1091 452.817C9.1497 481.496 27.153 526.731 44.3042 569.697C59.3354 607.352 73.4975 642.741 87.2459 665.217C94.2628 676.688 100.212 683.126 104.812 685.534C106.8 686.575 108.115 686.641 109.112 686.44C110.224 686.216 112.106 685.417 114.702 682.729C120.327 676.903 126.938 664.336 133.914 643.37C140.761 622.796 147.573 595.378 154.267 561.125C173.237 464.062 198.879 395.387 233.511 352.831C259.253 321.197 287.887 306.251 318.239 300.06C348.055 293.977 379.321 296.431 409.801 298.758L409.801 298.758C442.474 301.253 474.094 303.604 504.953 297.002C535.353 290.498 565.348 275.193 594.112 241.454C628.972 200.567 658.653 136.797 684.342 45.3752L685.244 42.1656L687.947 40.2259L689.238 39.2986L711.231 23.5197L703.893 49.632C677.733 142.724 646.78 210.191 608.772 254.773C576.895 292.162 542.967 309.869 508.338 317.35C474.165 324.733 439.667 322.034 407.335 319.566L407.334 319.567L407.334 319.566L407.322 319.565L401.558 319.127C372.882 316.971 346.348 315.432 321.434 320.444C295.394 325.682 270.963 338.148 248.528 365.718C217.501 403.847 192.911 468.057 174.221 563.693C167.278 599.222 160.184 627.867 152.8 649.774C145.523 671.365 137.593 687.587 128.362 697.147L127.936 697.582C123.516 702.041 118.464 705.306 112.714 706.583C106.647 707.931 100.833 706.837 95.6247 704.261Z" fill="#F8FAFD" stroke="#F8FAFD" stroke-width="19"/>
</svg>
