<svg width="20" height="20" viewBox="0 0 20 20" fill="none" xmlns="http://www.w3.org/2000/svg">
<g clip-path="url(#clip0_632_160)">
<path d="M19.2954 11.5774C19.8921 6.5549 19.0087 3.38406 17.4154 1.9499L17.4162 1.94906C14.8446 -0.500102 6.15958 -0.862602 3.08291 2.05906C1.70124 3.48823 1.21458 5.58573 1.16124 8.1824C1.10791 10.7799 1.04458 15.6457 5.57874 16.9657H5.58291L5.57874 18.9816C5.57874 18.9816 5.54791 19.7982 6.06958 19.9624C6.66624 20.1557 6.93624 19.7766 8.79208 17.5599C11.8954 17.8291 14.2787 17.2124 14.5496 17.1224C15.1762 16.9124 18.7221 16.4432 19.2954 11.5774ZM9.09791 16.1416C9.09791 16.1416 7.13374 18.5907 6.52291 19.2266C6.32291 19.4332 6.10374 19.4141 6.10708 19.0041C6.10708 18.7349 6.12208 15.6574 6.12208 15.6574C2.27791 14.5557 2.50458 10.4124 2.54624 8.2449C2.58791 6.07657 2.98458 4.30073 4.15458 3.1049C6.85374 0.574065 14.4679 1.1399 16.4079 2.96323C18.7796 5.06573 17.9354 11.0057 17.9404 11.2082C17.4529 15.2699 14.5796 15.5274 14.0512 15.7032C13.8254 15.7782 11.7296 16.3174 9.09791 16.1416Z" fill="url(#paint0_linear_632_160)"/>
<path d="M10.185 3.58081C9.86413 3.58081 9.86413 4.08081 10.185 4.08498C12.6741 4.10414 14.7241 5.83914 14.7466 9.02164C14.7466 9.35748 15.2383 9.35331 15.2341 9.01748C15.2075 5.58831 12.9683 3.59998 10.185 3.58081Z" fill="url(#paint1_linear_632_160)"/>
<path d="M13.4585 8.49405C13.451 8.82572 13.9419 8.84155 13.946 8.50572C13.9869 6.61488 12.821 5.05738 10.6302 4.89322C10.3094 4.86988 10.276 5.37405 10.596 5.39738C12.496 5.54155 13.4969 6.83822 13.4585 8.49405ZM12.9335 10.6449C12.5219 10.4066 12.1027 10.5549 11.9294 10.789L11.5669 11.2582C11.3827 11.4966 11.0385 11.4649 11.0385 11.4649C8.52686 10.8007 7.8552 8.17238 7.8552 8.17238C7.8552 8.17238 7.82436 7.81655 8.05436 7.62572L8.5077 7.25072C8.73436 7.07072 8.8777 6.63738 8.64686 6.21155C8.0302 5.09738 7.61603 4.71322 7.4052 4.41822C7.18353 4.14072 6.8502 4.07822 6.50353 4.26572H6.49603C5.7752 4.68738 4.98603 5.47655 5.23853 6.28905C5.66936 7.14572 6.46103 9.87655 8.98436 11.9399C10.1702 12.9157 12.0469 13.9157 12.8435 14.1466L12.851 14.1582C13.636 14.4199 14.3994 13.5999 14.8069 12.8574V12.8516C14.9877 12.4924 14.9277 12.1524 14.6635 11.9299C14.1952 11.4732 13.4885 10.9691 12.9335 10.6449Z" fill="url(#paint2_linear_632_160)"/>
<path d="M10.9741 6.75323C11.775 6.7999 12.1633 7.21823 12.205 8.0774C12.22 8.41323 12.7075 8.3899 12.6925 8.05407C12.6391 6.9324 12.0541 6.3074 11.0008 6.24907C10.68 6.2299 10.65 6.73407 10.9741 6.75323Z" fill="url(#paint3_linear_632_160)"/>
</g>
<defs>
<linearGradient id="paint0_linear_632_160" x1="1.14941" y1="-0.0111084" x2="20.0761" y2="0.566687" gradientUnits="userSpaceOnUse">
<stop stop-color="#092B96"/>
<stop offset="1" stop-color="#086CDC"/>
</linearGradient>
<linearGradient id="paint1_linear_632_160" x1="9.94434" y1="3.58081" x2="15.4052" y2="3.75002" gradientUnits="userSpaceOnUse">
<stop stop-color="#092B96"/>
<stop offset="1" stop-color="#086CDC"/>
</linearGradient>
<linearGradient id="paint2_linear_632_160" x1="5.19043" y1="4.15833" x2="15.2243" y2="4.48182" gradientUnits="userSpaceOnUse">
<stop stop-color="#092B96"/>
<stop offset="1" stop-color="#086CDC"/>
</linearGradient>
<linearGradient id="paint3_linear_632_160" x1="10.7451" y1="6.24854" x2="12.7557" y2="6.31161" gradientUnits="userSpaceOnUse">
<stop stop-color="#092B96"/>
<stop offset="1" stop-color="#086CDC"/>
</linearGradient>
<clipPath id="clip0_632_160">
<rect width="20" height="20" fill="white"/>
</clipPath>
</defs>
</svg>
