<svg width="20" height="20" viewBox="0 0 20 20" fill="none" xmlns="http://www.w3.org/2000/svg">
<g clip-path="url(#clip0_632_63)">
<path d="M14.5893 11.9224L14.5818 11.9849C12.7493 11.0716 12.5576 10.9499 12.3209 11.3049C12.1568 11.5508 11.6784 12.1083 11.5343 12.2733C11.3884 12.4358 11.2434 12.4483 10.9959 12.3358C10.7459 12.2108 9.94345 11.9483 8.99345 11.0983C8.25345 10.4358 7.75678 9.62327 7.61012 9.37327C7.36595 8.9516 7.87678 8.8916 8.34178 8.0116C8.42512 7.8366 8.38261 7.6991 8.32095 7.57494C8.25845 7.44994 7.76095 6.22494 7.55261 5.7366C7.35261 5.24994 7.14678 5.3116 6.99261 5.3116C6.51261 5.26994 6.16178 5.2766 5.85261 5.59827C4.50761 7.0766 4.84678 8.6016 5.99761 10.2233C8.25928 13.1833 9.46428 13.7283 11.6676 14.4849C12.2626 14.6741 12.8051 14.6474 13.2343 14.5858C13.7126 14.5099 14.7068 13.9849 14.9143 13.3974C15.1268 12.8099 15.1268 12.3224 15.0643 12.2099C15.0026 12.0974 14.8393 12.0349 14.5893 11.9224Z" fill="url(#paint0_linear_632_63)"/>
<path d="M17.1 2.87392C10.6925 -3.32025 0.0883333 1.17225 0.0841667 9.91058C0.0841667 11.6573 0.541667 13.3606 1.41333 14.8648L0 19.9998L5.27917 18.6231C11.8667 22.1814 19.9967 17.4564 20 9.91558C20 7.26892 18.9667 4.77808 17.0875 2.90642L17.1 2.87392ZM18.335 9.88809C18.33 16.2489 11.3475 20.2214 5.825 16.9748L5.525 16.7964L2.4 17.6089L3.2375 14.5714L3.03833 14.2589C-0.398333 8.78809 3.55 1.63808 10.06 1.63808C11.1471 1.63535 12.224 1.84827 13.2283 2.26452C14.2326 2.68077 15.1444 3.29209 15.9108 4.06308C16.6815 4.8244 17.2927 5.73159 17.7089 6.7317C18.1251 7.73182 18.338 8.80482 18.335 9.88809Z" fill="url(#paint1_linear_632_63)"/>
</g>
<defs>
<linearGradient id="paint0_linear_632_63" x1="4.98047" y1="5.29358" x2="15.4242" y2="5.67085" gradientUnits="userSpaceOnUse">
<stop stop-color="#092B96"/>
<stop offset="1" stop-color="#086CDC"/>
</linearGradient>
<linearGradient id="paint1_linear_632_63" x1="0" y1="-0.000610352" x2="20.6437" y2="0.687489" gradientUnits="userSpaceOnUse">
<stop stop-color="#092B96"/>
<stop offset="1" stop-color="#086CDC"/>
</linearGradient>
<clipPath id="clip0_632_63">
<rect width="20" height="20" fill="white"/>
</clipPath>
</defs>
</svg>
