<svg width="24" height="17" viewBox="0 0 24 17" fill="none" xmlns="http://www.w3.org/2000/svg">
<path d="M23.4688 2.42901L23.4988 2.62501C23.362 2.12625 23.1003 1.67059 22.7385 1.30105C22.3766 0.931516 21.9266 0.6603 21.4308 0.513014L21.4098 0.508014C19.5388 1.37091e-05 12.0098 1.382e-05 12.0098 1.382e-05C12.0098 1.382e-05 4.49981 -0.00998628 2.60981 0.508014C2.11318 0.651739 1.66135 0.919587 1.29691 1.2863C0.93247 1.65301 0.667439 2.1065 0.526806 2.60401L0.521806 2.62501C-0.177194 6.27601 -0.182194 10.663 0.552806 14.572L0.521806 14.374C0.658623 14.8728 0.920305 15.3284 1.28214 15.698C1.64398 16.0675 2.09403 16.3387 2.58981 16.486L2.61081 16.491C4.47981 17 12.0108 17 12.0108 17C12.0108 17 19.5198 17 21.4108 16.491C21.9077 16.3475 22.3597 16.0798 22.7244 15.713C23.089 15.3463 23.3542 14.8927 23.4948 14.395L23.4998 14.374C23.8178 12.676 23.9998 10.722 23.9998 8.72601L23.9988 8.50501L23.9998 8.27501C23.9998 6.27801 23.8178 4.32401 23.4688 2.42901ZM9.60781 12.151V4.85801L15.8738 8.51001L9.60781 12.151Z" fill="white"/>
</svg>
